<?xml version="1.0" standalone="no"?><!DOCTYPE svg PUBLIC "-//W3C//DTD SVG 1.1//EN" "http://www.w3.org/Graphics/SVG/1.1/DTD/svg11.dtd"><svg t="1741332795887" class="icon" viewBox="0 0 1100 1024" version="1.1" xmlns="http://www.w3.org/2000/svg" p-id="2623" xmlns:xlink="http://www.w3.org/1999/xlink" width="214.84375" height="200"><path d="M93.28586336 487.33822016H53.61256546a53.61256384 53.61256384 0 0 1-34.31204033-94.35811539L446.0565448 37.52879639a160.83769696 160.83769696 0 0 1 205.87225097 0l428.900523 355.45130884a53.61256384 53.61256384 0 0 1-34.31204163 94.89424062h-39.6732982a26.80628266 26.80628266 0 0 0-26.80628332 26.80628221v348.48167548a160.83769696 160.83769696 0 0 1-160.83769563 160.83769598h-53.61256517a107.22513086 107.22513086 0 0 1-107.22513093-107.22513107v-160.8376958a107.22513086 107.22513086 0 0 0-107.22513096-107.22513127 107.22513086 107.22513086 0 0 0-107.22513007 107.22513127v160.8376958a107.22513086 107.22513086 0 0 1-107.22513232 107.22513107h-53.61256477a160.83769696 160.83769696 0 0 1-160.83769719-160.83769548V514.14450324a26.80628266 26.80628266 0 0 0-28.95078522-26.80628308z" fill="#515151" p-id="2624"></path></svg>